<svg width="124" height="32" viewBox="0 0 124 32" fill="none" xmlns="http://www.w3.org/2000/svg">
<path fill-rule="evenodd" clip-rule="evenodd" d="M20.7046 8.25644C21.8299 7.13067 23.3564 6.49817 24.9482 6.49817C26.5399 6.49817 28.0664 7.13063 29.1916 8.25636C30.3174 9.38164 30.95 10.9083 30.95 12.5C30.95 14.0917 30.3175 15.6183 29.1917 16.7435C29.1917 16.7436 29.1917 16.7435 29.1917 16.7435L20.3517 25.5835C20.1565 25.7788 19.8399 25.7788 19.6446 25.5835L10.8046 16.7435C8.46096 14.3999 8.46096 10.6001 10.8046 8.25644C13.1483 5.91279 16.9481 5.91279 19.2917 8.25644L19.9982 8.96289L20.7046 8.25644C20.7046 8.25641 20.7046 8.25647 20.7046 8.25644ZM24.9482 7.49817C23.6217 7.49817 22.3496 8.02528 21.4118 8.96346L20.3517 10.0235C20.258 10.1173 20.1308 10.17 19.9982 10.17C19.8656 10.17 19.7384 10.1173 19.6446 10.0235L18.5846 8.96355C16.6315 7.01042 13.4648 7.01042 11.5117 8.96355C9.55859 10.9167 9.55859 14.0833 11.5117 16.0364L19.9982 24.5229L28.4846 16.0364C29.4228 15.0987 29.95 13.8265 29.95 12.5C29.95 11.1735 29.4229 9.90138 28.4847 8.96363C27.5469 8.02544 26.2747 7.49817 24.9482 7.49817Z" fill="#414141"/>
<path d="M46.2848 20C46.2048 20 46.1368 19.976 46.0808 19.928C46.0328 19.872 46.0088 19.804 46.0088 19.724V11.888C46.0088 11.8 46.0328 11.732 46.0808 11.684C46.1368 11.628 46.2048 11.6 46.2848 11.6H49.5728C50.4288 11.6 51.0728 11.804 51.5048 12.212C51.9368 12.62 52.1528 13.156 52.1528 13.82C52.1528 14.268 52.0488 14.64 51.8408 14.936C51.6408 15.232 51.4008 15.448 51.1208 15.584C51.4568 15.752 51.7408 16.012 51.9728 16.364C52.2048 16.716 52.3208 17.12 52.3208 17.576C52.3208 18.024 52.2168 18.432 52.0088 18.8C51.8088 19.168 51.5088 19.46 51.1088 19.676C50.7088 19.892 50.2288 20 49.6688 20H46.2848ZM49.3928 15.152C49.8968 15.152 50.2808 15.036 50.5448 14.804C50.8168 14.572 50.9528 14.248 50.9528 13.832C50.9528 13.424 50.8208 13.112 50.5568 12.896C50.2928 12.68 49.9048 12.572 49.3928 12.572H47.1848V15.152H49.3928ZM49.5128 19.028C50.0168 19.028 50.4088 18.892 50.6888 18.62C50.9768 18.348 51.1208 18 51.1208 17.576C51.1208 17.136 50.9768 16.784 50.6888 16.52C50.4088 16.248 50.0168 16.112 49.5128 16.112H47.1848V19.028H49.5128ZM62.1139 13.76C62.1779 13.76 62.2339 13.784 62.2819 13.832C62.3379 13.88 62.3659 13.936 62.3659 14V19.724C62.3659 19.804 62.3379 19.872 62.2819 19.928C62.2339 19.976 62.1699 20 62.0899 20H61.5259C61.4459 20 61.3779 19.976 61.3219 19.928C61.2739 19.872 61.2499 19.804 61.2499 19.724V15.368L57.9259 19.82C57.8379 19.94 57.7339 20 57.6139 20H57.0739C57.0019 20 56.9379 19.976 56.8819 19.928C56.8339 19.872 56.8099 19.812 56.8099 19.748V14.036C56.8099 13.956 56.8339 13.892 56.8819 13.844C56.9379 13.788 57.0059 13.76 57.0859 13.76H57.6619C57.7419 13.76 57.8059 13.788 57.8539 13.844C57.9099 13.892 57.9379 13.956 57.9379 14.036V18.368L61.2499 13.94C61.3379 13.82 61.4419 13.76 61.5619 13.76H62.1139ZM66.2944 20.12C65.7104 20.12 65.2264 20.028 64.8424 19.844C64.4664 19.66 64.1904 19.436 64.0144 19.172C63.8464 18.908 63.7584 18.648 63.7504 18.392V18.368C63.7504 18.304 63.7744 18.252 63.8224 18.212C63.8704 18.172 63.9264 18.152 63.9904 18.152H64.5544C64.6984 18.152 64.7944 18.228 64.8424 18.38C64.9304 18.684 65.1024 18.9 65.3584 19.028C65.6224 19.148 65.9664 19.208 66.3904 19.208C66.7984 19.208 67.1344 19.124 67.3984 18.956C67.6624 18.788 67.7944 18.54 67.7944 18.212C67.7944 17.876 67.6984 17.628 67.5064 17.468C67.3224 17.3 67.0344 17.216 66.6424 17.216H65.9824C65.9104 17.216 65.8504 17.192 65.8024 17.144C65.7544 17.096 65.7304 17.032 65.7304 16.952V16.628C65.7304 16.548 65.7544 16.484 65.8024 16.436C65.8504 16.388 65.9104 16.364 65.9824 16.364H66.5704C67.2504 16.364 67.5904 16.096 67.5904 15.56C67.5904 15.272 67.4864 15.032 67.2784 14.84C67.0784 14.648 66.7504 14.552 66.2944 14.552C65.8544 14.552 65.5344 14.628 65.3344 14.78C65.1424 14.924 65.0024 15.156 64.9144 15.476C64.8824 15.556 64.8424 15.616 64.7944 15.656C64.7544 15.688 64.6944 15.704 64.6144 15.704H64.0744C64.0024 15.704 63.9424 15.684 63.8944 15.644C63.8464 15.596 63.8224 15.54 63.8224 15.476C63.8304 15.148 63.9264 14.844 64.1104 14.564C64.2944 14.284 64.5704 14.06 64.9384 13.892C65.3064 13.724 65.7584 13.64 66.2944 13.64C66.8544 13.64 67.3144 13.728 67.6744 13.904C68.0344 14.08 68.2944 14.3 68.4544 14.564C68.6144 14.828 68.6944 15.104 68.6944 15.392C68.6944 15.72 68.6384 15.988 68.5264 16.196C68.4224 16.396 68.2304 16.564 67.9504 16.7C68.2944 16.828 68.5384 17.028 68.6824 17.3C68.8344 17.572 68.9104 17.904 68.9104 18.296C68.9104 18.88 68.6704 19.332 68.1904 19.652C67.7104 19.964 67.0784 20.12 66.2944 20.12ZM75.723 16.736C75.731 16.816 75.735 16.944 75.735 17.12C75.735 17.272 75.731 17.38 75.723 17.444C75.691 18.252 75.431 18.9 74.943 19.388C74.463 19.876 73.783 20.12 72.903 20.12C71.999 20.12 71.311 19.864 70.839 19.352C70.367 18.84 70.115 18.136 70.083 17.24L70.071 16.52L70.083 15.8C70.091 14.656 70.243 13.8 70.539 13.232C70.843 12.656 71.271 12.244 71.823 11.996C72.383 11.74 73.287 11.448 74.535 11.12L74.823 11.048L74.883 11.036C74.947 11.036 75.003 11.06 75.051 11.108C75.107 11.148 75.139 11.196 75.147 11.252L75.243 11.744L75.255 11.816C75.255 11.872 75.235 11.92 75.195 11.96C75.163 12 75.115 12.028 75.051 12.044L74.451 12.188C73.531 12.412 72.871 12.604 72.471 12.764C72.071 12.924 71.759 13.176 71.535 13.52C71.319 13.856 71.199 14.36 71.175 15.032C71.367 14.744 71.639 14.512 71.991 14.336C72.343 14.152 72.715 14.06 73.107 14.06C73.915 14.06 74.543 14.308 74.991 14.804C75.447 15.292 75.691 15.936 75.723 16.736ZM74.571 17.396C74.579 17.34 74.583 17.248 74.583 17.12C74.583 16.976 74.579 16.868 74.571 16.796C74.555 16.212 74.403 15.76 74.115 15.44C73.835 15.112 73.467 14.948 73.011 14.948C72.499 14.948 72.079 15.112 71.751 15.44C71.431 15.76 71.259 16.212 71.235 16.796L71.223 17.12L71.235 17.396C71.259 17.988 71.419 18.444 71.715 18.764C72.011 19.076 72.407 19.232 72.903 19.232C73.407 19.232 73.807 19.076 74.103 18.764C74.399 18.444 74.555 17.988 74.571 17.396ZM77.5237 22.28C77.4437 22.28 77.3757 22.252 77.3197 22.196C77.2717 22.148 77.2477 22.084 77.2477 22.004V14.036C77.2477 13.956 77.2717 13.892 77.3197 13.844C77.3757 13.788 77.4437 13.76 77.5237 13.76H78.0757C78.1557 13.76 78.2197 13.788 78.2677 13.844C78.3237 13.892 78.3517 13.956 78.3517 14.036V14.564C78.7997 13.948 79.4557 13.64 80.3197 13.64C81.1597 13.64 81.7877 13.904 82.2037 14.432C82.6277 14.96 82.8557 15.64 82.8877 16.472C82.8957 16.56 82.8997 16.696 82.8997 16.88C82.8997 17.064 82.8957 17.2 82.8877 17.288C82.8557 18.112 82.6277 18.792 82.2037 19.328C81.7797 19.856 81.1517 20.12 80.3197 20.12C79.4877 20.12 78.8397 19.82 78.3757 19.22V22.004C78.3757 22.084 78.3517 22.148 78.3037 22.196C78.2557 22.252 78.1917 22.28 78.1117 22.28H77.5237ZM80.0677 19.148C80.6357 19.148 81.0477 18.972 81.3037 18.62C81.5677 18.268 81.7117 17.804 81.7357 17.228C81.7437 17.148 81.7477 17.032 81.7477 16.88C81.7477 15.368 81.1877 14.612 80.0677 14.612C79.5157 14.612 79.0997 14.796 78.8197 15.164C78.5477 15.524 78.3997 15.956 78.3757 16.46L78.3637 16.916L78.3757 17.384C78.3917 17.856 78.5437 18.268 78.8317 18.62C79.1197 18.972 79.5317 19.148 80.0677 19.148ZM86.1241 20.12C85.7321 20.12 85.3681 20.04 85.0321 19.88C84.6961 19.72 84.4281 19.504 84.2281 19.232C84.0361 18.952 83.9401 18.644 83.9401 18.308C83.9401 17.78 84.1561 17.348 84.5881 17.012C85.0281 16.668 85.6201 16.444 86.3641 16.34L88.1521 16.088V15.74C88.1521 14.924 87.6841 14.516 86.7481 14.516C86.3961 14.516 86.1081 14.592 85.8841 14.744C85.6601 14.888 85.4921 15.06 85.3801 15.26C85.3561 15.332 85.3241 15.384 85.2841 15.416C85.2521 15.448 85.2041 15.464 85.1401 15.464H84.6241C84.5521 15.464 84.4881 15.44 84.4321 15.392C84.3841 15.336 84.3601 15.272 84.3601 15.2C84.3681 15.008 84.4561 14.792 84.6241 14.552C84.8001 14.304 85.0681 14.092 85.4281 13.916C85.7881 13.732 86.2321 13.64 86.7601 13.64C87.6561 13.64 88.3001 13.852 88.6921 14.276C89.0841 14.692 89.2801 15.212 89.2801 15.836V19.724C89.2801 19.804 89.2521 19.872 89.1961 19.928C89.1481 19.976 89.0841 20 89.0041 20H88.4521C88.3721 20 88.3041 19.976 88.2481 19.928C88.2001 19.872 88.1761 19.804 88.1761 19.724V19.208C88.0001 19.464 87.7441 19.68 87.4081 19.856C87.0721 20.032 86.6441 20.12 86.1241 20.12ZM86.3761 19.22C86.8961 19.22 87.3201 19.052 87.6481 18.716C87.9841 18.372 88.1521 17.88 88.1521 17.24V16.904L86.7601 17.108C86.1921 17.188 85.7641 17.324 85.4761 17.516C85.1881 17.7 85.0441 17.936 85.0441 18.224C85.0441 18.544 85.1761 18.792 85.4401 18.968C85.7041 19.136 86.0161 19.22 86.3761 19.22ZM91.2812 20C91.2012 20 91.1332 19.976 91.0772 19.928C91.0292 19.872 91.0052 19.804 91.0052 19.724V14.036C91.0052 13.956 91.0292 13.892 91.0772 13.844C91.1332 13.788 91.2012 13.76 91.2812 13.76H91.8572C91.9372 13.76 92.0012 13.788 92.0492 13.844C92.1052 13.892 92.1332 13.956 92.1332 14.036V16.34H95.3972V14.036C95.3972 13.956 95.4212 13.892 95.4692 13.844C95.5252 13.788 95.5932 13.76 95.6732 13.76H96.2372C96.3172 13.76 96.3812 13.788 96.4292 13.844C96.4852 13.892 96.5132 13.956 96.5132 14.036V19.724C96.5132 19.804 96.4852 19.872 96.4292 19.928C96.3812 19.976 96.3172 20 96.2372 20H95.6732C95.5932 20 95.5252 19.976 95.4692 19.928C95.4212 19.872 95.3972 19.804 95.3972 19.724V17.3H92.1332V19.724C92.1332 19.804 92.1052 19.872 92.0492 19.928C92.0012 19.976 91.9372 20 91.8572 20H91.2812ZM100.874 20.12C99.9937 20.12 99.3097 19.872 98.8217 19.376C98.3417 18.88 98.0857 18.22 98.0537 17.396L98.0417 16.88L98.0537 16.364C98.0857 15.548 98.3457 14.892 98.8337 14.396C99.3217 13.892 100.002 13.64 100.874 13.64C101.746 13.64 102.426 13.892 102.914 14.396C103.402 14.892 103.662 15.548 103.694 16.364C103.702 16.452 103.706 16.624 103.706 16.88C103.706 17.136 103.702 17.308 103.694 17.396C103.662 18.22 103.402 18.88 102.914 19.376C102.434 19.872 101.754 20.12 100.874 20.12ZM100.874 19.196C101.378 19.196 101.774 19.036 102.062 18.716C102.358 18.396 102.518 17.936 102.542 17.336C102.55 17.256 102.554 17.104 102.554 16.88C102.554 16.656 102.55 16.504 102.542 16.424C102.518 15.824 102.358 15.364 102.062 15.044C101.774 14.724 101.378 14.564 100.874 14.564C100.37 14.564 99.9697 14.724 99.6737 15.044C99.3777 15.364 99.2217 15.824 99.2057 16.424L99.1937 16.88L99.2057 17.336C99.2217 17.936 99.3777 18.396 99.6737 18.716C99.9697 19.036 100.37 19.196 100.874 19.196ZM107.704 20.12C106.88 20.12 106.22 19.868 105.724 19.364C105.236 18.852 104.968 18.156 104.92 17.276L104.908 16.868L104.92 16.472C104.976 15.608 105.248 14.92 105.736 14.408C106.232 13.896 106.884 13.64 107.692 13.64C108.58 13.64 109.268 13.924 109.756 14.492C110.244 15.052 110.488 15.812 110.488 16.772V16.976C110.488 17.056 110.46 17.124 110.404 17.18C110.356 17.228 110.292 17.252 110.212 17.252H106.06V17.36C106.084 17.88 106.24 18.324 106.528 18.692C106.824 19.052 107.212 19.232 107.692 19.232C108.06 19.232 108.36 19.16 108.592 19.016C108.832 18.864 109.008 18.708 109.12 18.548C109.192 18.452 109.244 18.396 109.276 18.38C109.316 18.356 109.384 18.344 109.48 18.344H110.068C110.14 18.344 110.2 18.364 110.248 18.404C110.296 18.444 110.32 18.5 110.32 18.572C110.32 18.748 110.208 18.96 109.984 19.208C109.768 19.456 109.46 19.672 109.06 19.856C108.668 20.032 108.216 20.12 107.704 20.12ZM109.348 16.424V16.388C109.348 15.836 109.196 15.388 108.892 15.044C108.596 14.692 108.196 14.516 107.692 14.516C107.188 14.516 106.788 14.692 106.492 15.044C106.204 15.388 106.06 15.836 106.06 16.388V16.424H109.348Z" fill="#606060"/>
</svg>
