<svg width="132" height="32" viewBox="0 0 132 32" fill="none" xmlns="http://www.w3.org/2000/svg">
<path fill-rule="evenodd" clip-rule="evenodd" d="M22.5 9C22.5 7.067 24.067 5.5 26 5.5C27.933 5.5 29.5 7.067 29.5 9C29.5 10.933 27.933 12.5 26 12.5C24.067 12.5 22.5 10.933 22.5 9ZM26 6.5C24.6193 6.5 23.5 7.61929 23.5 9C23.5 10.3807 24.6193 11.5 26 11.5C27.3807 11.5 28.5 10.3807 28.5 9C28.5 7.61929 27.3807 6.5 26 6.5Z" fill="#414141"/>
<path fill-rule="evenodd" clip-rule="evenodd" d="M10.5 16C10.5 14.067 12.067 12.5 14 12.5C15.933 12.5 17.5 14.067 17.5 16C17.5 17.933 15.933 19.5 14 19.5C12.067 19.5 10.5 17.933 10.5 16ZM14 13.5C12.6193 13.5 11.5 14.6193 11.5 16C11.5 17.3807 12.6193 18.5 14 18.5C15.3807 18.5 16.5 17.3807 16.5 16C16.5 14.6193 15.3807 13.5 14 13.5Z" fill="#414141"/>
<path fill-rule="evenodd" clip-rule="evenodd" d="M22.5 23C22.5 21.067 24.067 19.5 26 19.5C27.933 19.5 29.5 21.067 29.5 23C29.5 24.933 27.933 26.5 26 26.5C24.067 26.5 22.5 24.933 22.5 23ZM26 20.5C24.6193 20.5 23.5 21.6193 23.5 23C23.5 24.3807 24.6193 25.5 26 25.5C27.3807 25.5 28.5 24.3807 28.5 23C28.5 21.6193 27.3807 20.5 26 20.5Z" fill="#414141"/>
<path fill-rule="evenodd" clip-rule="evenodd" d="M16.1579 17.2583C16.297 17.0197 16.6031 16.939 16.8417 17.078L23.6717 21.058C23.9103 21.197 23.991 21.5031 23.8519 21.7417C23.7129 21.9803 23.4068 22.061 23.1682 21.922L16.3382 17.942C16.0996 17.803 16.0189 17.4969 16.1579 17.2583Z" fill="#414141"/>
<path fill-rule="evenodd" clip-rule="evenodd" d="M23.8418 10.258C23.981 10.4965 23.9004 10.8027 23.6619 10.9418L16.8419 14.9218C16.6034 15.061 16.2973 14.9805 16.1581 14.742C16.0189 14.5035 16.0994 14.1973 16.3379 14.0582L23.1579 10.0782C23.3964 9.93897 23.7026 10.0195 23.8418 10.258Z" fill="#414141"/>
<path d="M48.8669 20C48.7869 20 48.7189 19.976 48.6629 19.928C48.6149 19.872 48.5909 19.804 48.5909 19.724V11.888C48.5909 11.8 48.6149 11.732 48.6629 11.684C48.7189 11.628 48.7869 11.6 48.8669 11.6H54.7829C54.8709 11.6 54.9389 11.628 54.9869 11.684C55.0429 11.732 55.0709 11.8 55.0709 11.888V19.724C55.0709 19.804 55.0429 19.872 54.9869 19.928C54.9309 19.976 54.8629 20 54.7829 20H54.1709C54.0909 20 54.0229 19.976 53.9669 19.928C53.9189 19.872 53.8949 19.804 53.8949 19.724V12.68H49.7669V19.724C49.7669 19.804 49.7389 19.872 49.6829 19.928C49.6269 19.976 49.5589 20 49.4789 20H48.8669ZM59.5573 20.12C58.6773 20.12 57.9933 19.872 57.5053 19.376C57.0253 18.88 56.7693 18.22 56.7373 17.396L56.7253 16.88L56.7373 16.364C56.7693 15.548 57.0293 14.892 57.5173 14.396C58.0053 13.892 58.6853 13.64 59.5573 13.64C60.4293 13.64 61.1093 13.892 61.5973 14.396C62.0853 14.892 62.3453 15.548 62.3773 16.364C62.3853 16.452 62.3893 16.624 62.3893 16.88C62.3893 17.136 62.3853 17.308 62.3773 17.396C62.3453 18.22 62.0853 18.88 61.5973 19.376C61.1173 19.872 60.4373 20.12 59.5573 20.12ZM59.5573 19.196C60.0613 19.196 60.4573 19.036 60.7453 18.716C61.0413 18.396 61.2013 17.936 61.2253 17.336C61.2333 17.256 61.2373 17.104 61.2373 16.88C61.2373 16.656 61.2333 16.504 61.2253 16.424C61.2013 15.824 61.0413 15.364 60.7453 15.044C60.4573 14.724 60.0613 14.564 59.5573 14.564C59.0533 14.564 58.6533 14.724 58.3573 15.044C58.0613 15.364 57.9053 15.824 57.8893 16.424L57.8773 16.88L57.8893 17.336C57.9053 17.936 58.0613 18.396 58.3573 18.716C58.6533 19.036 59.0533 19.196 59.5573 19.196ZM63.5319 21.32C63.4519 21.32 63.3839 21.292 63.3279 21.236C63.2799 21.188 63.2559 21.124 63.2559 21.044V19.316C63.2559 19.236 63.2799 19.172 63.3279 19.124C63.3839 19.068 63.4519 19.04 63.5319 19.04H63.5919C63.9279 19.032 64.1799 18.752 64.3479 18.2C64.5239 17.648 64.6119 16.772 64.6119 15.572V14.036C64.6119 13.956 64.6359 13.892 64.6839 13.844C64.7399 13.788 64.8079 13.76 64.8879 13.76H68.7159C68.7959 13.76 68.8599 13.788 68.9079 13.844C68.9639 13.892 68.9919 13.956 68.9919 14.036V19.016H69.5559C69.6359 19.016 69.6999 19.044 69.7479 19.1C69.8039 19.148 69.8319 19.212 69.8319 19.292V21.044C69.8319 21.124 69.8039 21.188 69.7479 21.236C69.6999 21.292 69.6359 21.32 69.5559 21.32H68.9919C68.9119 21.32 68.8439 21.292 68.7879 21.236C68.7399 21.188 68.7159 21.124 68.7159 21.044V20H64.3719V21.044C64.3719 21.124 64.3439 21.188 64.2879 21.236C64.2399 21.292 64.1759 21.32 64.0959 21.32H63.5319ZM67.8759 19.016V14.72H65.7039V15.704C65.7039 17.304 65.4759 18.416 65.0199 19.04L67.8759 19.016ZM73.5832 20.12C72.7592 20.12 72.0992 19.868 71.6032 19.364C71.1152 18.852 70.8472 18.156 70.7992 17.276L70.7872 16.868L70.7992 16.472C70.8552 15.608 71.1272 14.92 71.6152 14.408C72.1112 13.896 72.7632 13.64 73.5712 13.64C74.4592 13.64 75.1472 13.924 75.6352 14.492C76.1232 15.052 76.3672 15.812 76.3672 16.772V16.976C76.3672 17.056 76.3392 17.124 76.2832 17.18C76.2352 17.228 76.1712 17.252 76.0912 17.252H71.9392V17.36C71.9632 17.88 72.1192 18.324 72.4072 18.692C72.7032 19.052 73.0912 19.232 73.5712 19.232C73.9392 19.232 74.2392 19.16 74.4712 19.016C74.7112 18.864 74.8872 18.708 74.9992 18.548C75.0712 18.452 75.1232 18.396 75.1552 18.38C75.1952 18.356 75.2632 18.344 75.3592 18.344H75.9472C76.0192 18.344 76.0792 18.364 76.1272 18.404C76.1752 18.444 76.1992 18.5 76.1992 18.572C76.1992 18.748 76.0872 18.96 75.8632 19.208C75.6472 19.456 75.3392 19.672 74.9392 19.856C74.5472 20.032 74.0952 20.12 73.5832 20.12ZM75.2272 16.424V16.388C75.2272 15.836 75.0752 15.388 74.7712 15.044C74.4752 14.692 74.0752 14.516 73.5712 14.516C73.0672 14.516 72.6672 14.692 72.3712 15.044C72.0832 15.388 71.9392 15.836 71.9392 16.388V16.424H75.2272ZM77.4552 20C77.3752 20 77.3072 19.972 77.2512 19.916C77.1952 19.86 77.1672 19.792 77.1672 19.712V19.268C77.1672 19.188 77.1912 19.124 77.2392 19.076C77.2872 19.028 77.3472 19.004 77.4192 19.004C77.8032 18.988 78.0872 18.716 78.2712 18.188C78.4632 17.652 78.5592 16.78 78.5592 15.572V14.036C78.5592 13.956 78.5832 13.892 78.6312 13.844C78.6872 13.788 78.7552 13.76 78.8352 13.76H82.6512C82.7312 13.76 82.7952 13.788 82.8432 13.844C82.8992 13.892 82.9272 13.956 82.9272 14.036V19.724C82.9272 19.804 82.8992 19.872 82.8432 19.928C82.7952 19.976 82.7312 20 82.6512 20H82.0752C81.9952 20 81.9312 19.976 81.8832 19.928C81.8352 19.872 81.8112 19.804 81.8112 19.724V14.72H79.6512V15.704C79.6512 17.232 79.4752 18.332 79.1232 19.004C78.7712 19.668 78.2152 20 77.4552 20ZM90.0201 13.76C90.0841 13.76 90.1401 13.784 90.1881 13.832C90.2441 13.88 90.2721 13.936 90.2721 14V19.724C90.2721 19.804 90.2441 19.872 90.1881 19.928C90.1401 19.976 90.0761 20 89.9961 20H89.4321C89.3521 20 89.2841 19.976 89.2281 19.928C89.1801 19.872 89.1561 19.804 89.1561 19.724V15.368L85.8321 19.82C85.7441 19.94 85.6401 20 85.5201 20H84.9801C84.9081 20 84.8441 19.976 84.7881 19.928C84.7401 19.872 84.7161 19.812 84.7161 19.748V14.036C84.7161 13.956 84.7401 13.892 84.7881 13.844C84.8441 13.788 84.9121 13.76 84.9921 13.76H85.5681C85.6481 13.76 85.7121 13.788 85.7601 13.844C85.8161 13.892 85.8441 13.956 85.8441 14.036V18.368L89.1561 13.94C89.2441 13.82 89.3481 13.76 89.4681 13.76H90.0201ZM93.9366 20C93.8566 20 93.7886 19.976 93.7326 19.928C93.6846 19.872 93.6606 19.804 93.6606 19.724V14.72H91.5726C91.4926 14.72 91.4246 14.696 91.3686 14.648C91.3206 14.592 91.2966 14.524 91.2966 14.444V14.036C91.2966 13.956 91.3206 13.892 91.3686 13.844C91.4246 13.788 91.4926 13.76 91.5726 13.76H96.8526C96.9326 13.76 96.9966 13.788 97.0446 13.844C97.1006 13.892 97.1286 13.956 97.1286 14.036V14.444C97.1286 14.524 97.1006 14.592 97.0446 14.648C96.9966 14.696 96.9326 14.72 96.8526 14.72H94.7646V19.724C94.7646 19.804 94.7406 19.872 94.6926 19.928C94.6446 19.976 94.5806 20 94.5006 20H93.9366ZM98.4453 20C98.3653 20 98.2973 19.976 98.2413 19.928C98.1933 19.872 98.1693 19.804 98.1693 19.724V14.036C98.1693 13.956 98.1933 13.892 98.2413 13.844C98.2973 13.788 98.3653 13.76 98.4453 13.76H99.0213C99.1013 13.76 99.1653 13.788 99.2133 13.844C99.2693 13.892 99.2973 13.956 99.2973 14.036V15.8H100.641C101.433 15.8 102.021 15.988 102.405 16.364C102.797 16.732 102.993 17.256 102.993 17.936C102.993 18.64 102.785 19.16 102.369 19.496C101.961 19.832 101.337 20 100.497 20H98.4453ZM100.545 19.1C101.033 19.1 101.385 19.012 101.601 18.836C101.825 18.66 101.937 18.36 101.937 17.936C101.937 17.512 101.825 17.2 101.601 17C101.385 16.8 101.033 16.7 100.545 16.7H99.2853V19.1H100.545ZM106.701 20.12C105.845 20.12 105.173 19.88 104.685 19.4C104.205 18.912 103.949 18.232 103.917 17.36L103.905 16.88L103.917 16.4C103.949 15.528 104.205 14.852 104.685 14.372C105.173 13.884 105.845 13.64 106.701 13.64C107.277 13.64 107.765 13.744 108.165 13.952C108.565 14.16 108.861 14.416 109.053 14.72C109.253 15.024 109.361 15.328 109.377 15.632C109.385 15.712 109.361 15.776 109.305 15.824C109.249 15.872 109.181 15.896 109.101 15.896H108.525C108.445 15.896 108.385 15.88 108.345 15.848C108.305 15.816 108.265 15.752 108.225 15.656C108.089 15.272 107.897 15 107.649 14.84C107.401 14.672 107.089 14.588 106.713 14.588C106.217 14.588 105.821 14.744 105.525 15.056C105.237 15.36 105.081 15.828 105.057 16.46L105.045 16.892L105.057 17.3C105.081 17.94 105.237 18.412 105.525 18.716C105.813 19.02 106.209 19.172 106.713 19.172C107.089 19.172 107.401 19.092 107.649 18.932C107.897 18.764 108.089 18.488 108.225 18.104C108.265 18.008 108.305 17.944 108.345 17.912C108.385 17.872 108.445 17.852 108.525 17.852H109.101C109.181 17.852 109.249 17.88 109.305 17.936C109.361 17.984 109.385 18.048 109.377 18.128C109.361 18.424 109.253 18.728 109.053 19.04C108.861 19.344 108.565 19.6 108.165 19.808C107.773 20.016 107.285 20.12 106.701 20.12ZM115.266 13.76C115.346 13.76 115.41 13.788 115.458 13.844C115.514 13.892 115.542 13.956 115.542 14.036V19.724C115.542 19.804 115.514 19.872 115.458 19.928C115.41 19.976 115.346 20 115.266 20H114.69C114.61 20 114.542 19.976 114.486 19.928C114.438 19.872 114.414 19.804 114.414 19.724V17.768H113.13L111.774 19.82C111.742 19.868 111.698 19.912 111.642 19.952C111.586 19.984 111.526 20 111.462 20H110.886C110.814 20 110.754 19.976 110.706 19.928C110.658 19.88 110.634 19.824 110.634 19.76C110.634 19.68 110.662 19.608 110.718 19.544L112.062 17.564C111.646 17.42 111.334 17.192 111.126 16.88C110.918 16.56 110.814 16.176 110.814 15.728C110.814 15.056 111.01 14.56 111.402 14.24C111.802 13.92 112.402 13.76 113.202 13.76H115.266ZM114.426 14.66H113.166C112.71 14.66 112.378 14.74 112.17 14.9C111.962 15.06 111.858 15.336 111.858 15.728C111.858 16.072 111.958 16.348 112.158 16.556C112.366 16.764 112.67 16.868 113.07 16.868H114.426V14.66Z" fill="#606060"/>
</svg>
